#Box024.obj

v 0 0 -203.1395
v -71.82056 -124.3971 0
v 124.3971 -71.82056 0
v 0 0 -203.1395
v 124.3971 -71.82056 0
v 71.82056 124.3971 0
v 0 0 -203.1395
v 71.82056 124.3971 0
v -124.3971 71.82056 0
v 0 0 -203.1395
v -124.3971 71.82056 0
v -71.82056 -124.3971 0
v 124.3971 -71.82056 0
v -71.82056 -124.3971 0
v 0 0 203.1395
v 71.82056 124.3971 0
v 124.3971 -71.82056 0
v 0 0 203.1395
v -124.3971 71.82056 0
v 71.82056 124.3971 0
v 0 0 203.1395
v -71.82056 -124.3971 0
v -124.3971 71.82056 0
v 0 0 203.1395

vn 0.2315011 -0.8639714 -0.4471696
vn 0.2315068 -0.8639441 -0.4472192
vn 0.2315068 -0.8639441 -0.4472192
vn 0.8639714 0.2315011 -0.4471696
vn 0.8639441 0.2315068 -0.4472192
vn 0.8639441 0.2315068 -0.4472192
vn -0.2315011 0.8639714 -0.4471696
vn -0.2315068 0.8639441 -0.4472192
vn -0.2315068 0.8639441 -0.4472192
vn -0.8639714 -0.2315011 -0.4471696
vn -0.8639441 -0.2315068 -0.4472192
vn -0.8639441 -0.2315068 -0.4472192
vn 0.2315068 -0.8639441 0.4472192
vn 0.2315068 -0.8639441 0.4472192
vn 0.2315011 -0.8639714 0.4471696
vn 0.8639441 0.2315068 0.4472192
vn 0.8639441 0.2315068 0.4472192
vn 0.8639714 0.2315011 0.4471696
vn -0.2315068 0.8639441 0.4472192
vn -0.2315068 0.8639441 0.4472192
vn -0.2315011 0.8639714 0.4471696
vn -0.8639441 -0.2315068 0.4472192
vn -0.8639441 -0.2315068 0.4472192
vn -0.8639714 -0.2315011 0.4471696

vt 0.5 0
vt 0 0.5
vt 1 0.5
vt 0.5 0
vt 0 0.5
vt 1 0.5
vt 0.5 0
vt 0 0.5
vt 1 0.5
vt 0.5 0
vt 0 0.5
vt 1 0.5
vt 1 0.5
vt 0 0.5
vt 0.5 1
vt 1 0.5
vt 0 0.5
vt 0.5 1
vt 1 0.5
vt 0 0.5
vt 0.5 1
vt 1 0.5
vt 0 0.5
vt 0.5 1

g Box024
usemtl Box024
usemap Box024
f 1/1/1 3/3/3 2/2/2
f 4/4/4 6/6/6 5/5/5
f 7/7/7 9/9/9 8/8/8
f 10/10/10 12/12/12 11/11/11
f 13/13/13 15/15/15 14/14/14
f 16/16/16 18/18/18 17/17/17
f 19/19/19 21/21/21 20/20/20
f 22/22/22 24/24/24 23/23/23
