#Object032.obj

v 1.675614 0.8166986 -2.507609
v 2.369864 -0.5910997 -2.507609
v 2.369864 -0.5910997 2.507609
v 1.675614 0.8166986 2.507609
v 1.675614 0.8166986 2.507609
v 2.369864 -0.5910997 2.507609
v -1.325656 -2.121833 2.507609
v -1.788488 -1.183301 2.507609
v -1.788488 -1.183301 2.507609
v -1.325656 -2.121833 2.507609
v -1.325656 -2.121833 -2.507609
v -1.788488 -1.183301 -2.507609
v -1.788488 -1.183301 -2.507609
v -1.325656 -2.121833 -2.507609
v 2.369864 -0.5910997 -2.507609
v 1.675614 0.8166986 -2.507609
v 0.8035517 2.121833 -2.507609
v 1.675614 0.8166986 -2.507609
v 1.675614 0.8166986 2.507609
v 0.8035517 2.121833 2.507609
v 0.8035517 2.121833 2.507609
v 1.675614 0.8166986 2.507609
v -1.788488 -1.183301 2.507609
v -2.369864 -0.3132114 2.507609
v -2.369864 -0.3132114 2.507609
v -1.788488 -1.183301 2.507609
v -1.788488 -1.183301 -2.507609
v -2.369864 -0.3132114 -2.507609
v -2.369864 -0.3132114 -2.507609
v -1.788488 -1.183301 -2.507609
v 1.675614 0.8166986 -2.507609
v 0.8035517 2.121833 -2.507609
v -1.325656 -2.121833 2.507609
v 2.369864 -0.5910997 2.507609
v 2.369864 -0.5910997 -2.507609
v -1.325656 -2.121833 -2.507609
v -2.369864 -0.3132114 -2.507609
v 0.8035517 2.121833 -2.507609
v 0.8035517 2.121833 2.507609
v -2.369864 -0.3132114 2.507609

vn 0.8660255 0.4999999 0
vn 0.8968728 0.4422886 0
vn 0.8968728 0.4422886 0
vn 0.8660255 0.4999999 0
vn 0 0 1
vn 0 0 1
vn 0 0 1
vn 0 0 1
vn -0.8660255 -0.4999998 0
vn -0.8968729 -0.4422883 0
vn -0.8968729 -0.4422883 0
vn -0.8660255 -0.4999998 0
vn 0 0 -1
vn 0 0 -1
vn 0 0 -1
vn 0 0 -1
vn 0.8314697 0.5555701 0
vn 0.8660255 0.4999999 0
vn 0.8660255 0.4999999 0
vn 0.8314697 0.5555701 0
vn 0 0 1
vn 0 0 1
vn 0 0 1
vn 0 0 1
vn -0.8314696 -0.5555702 0
vn -0.8660255 -0.4999998 0
vn -0.8660255 -0.4999998 0
vn -0.8314696 -0.5555702 0
vn 0 0 -1
vn 0 0 -1
vn 0 0 -1
vn 0 0 -1
vn 0.3826832 -0.9238796 0
vn 0.3826832 -0.9238796 0
vn 0.3826832 -0.9238796 0
vn 0.3826832 -0.9238796 0
vn -0.608761 0.7933537 0
vn -0.608761 0.7933537 0
vn -0.608761 0.7933537 0
vn -0.608761 0.7933537 0

vt 0 0
vt 0 0.02083333
vt 0.25 0.02083333
vt 0.25 0
vt 0.25 0
vt 0.25 0.02083333
vt 0.5 0.02083333
vt 0.5 0
vt 0.5 0
vt 0.5 0.02083333
vt 0.75 0.02083333
vt 0.75 0
vt 0.75 0
vt 0.75 0.02083333
vt 1 0.02083333
vt 1 0
vt 0 0.9791667
vt 0 1
vt 0.25 1
vt 0.25 0.9791667
vt 0.25 0.9791667
vt 0.25 1
vt 0.5 1
vt 0.5 0.9791667
vt 0.5 0.9791667
vt 0.5 1
vt 0.75 1
vt 0.75 0.9791667
vt 0.75 0.9791667
vt 0.75 1
vt 1 1
vt 1 0.9791667
vt 0.5 0.02083333
vt 0.25 0.02083333
vt 1 0.02083333
vt 0.75 0.02083333
vt 0.75 0.9791667
vt 0 0.9791667
vt 0.25 0.9791667
vt 0.5 0.9791667

g Object032
usemtl Object032
usemap Object032
f 1/1/1 3/3/3 2/2/2
f 1/1/1 4/4/4 3/3/3
f 5/5/5 7/7/7 6/6/6
f 5/5/5 8/8/8 7/7/7
f 9/9/9 11/11/11 10/10/10
f 9/9/9 12/12/12 11/11/11
f 13/13/13 15/15/15 14/14/14
f 13/13/13 16/16/16 15/15/15
f 17/17/17 19/19/19 18/18/18
f 17/17/17 20/20/20 19/19/19
f 21/21/21 23/23/23 22/22/22
f 21/21/21 24/24/24 23/23/23
f 25/25/25 27/27/27 26/26/26
f 25/25/25 28/28/28 27/27/27
f 29/29/29 31/31/31 30/30/30
f 29/29/29 32/32/32 31/31/31
f 33/33/33 35/35/35 34/34/34
f 33/33/33 36/36/36 35/35/35
f 37/37/37 39/39/39 38/38/38
f 37/37/37 40/40/40 39/39/39
