#Object042.obj

v -5.999995 -10.39231 -2.507609
v -7.305132 -9.520244 -2.507609
v -7.305132 -9.520244 2.507609
v -5.999995 -10.39231 2.507609
v -5.999995 -10.39231 2.507609
v -7.305132 -9.520244 2.507609
v -4.870088 -6.346829 2.507609
v -3.999997 -6.928205 2.507609
v -3.999997 -6.928205 2.507609
v -4.870088 -6.346829 2.507609
v -4.870088 -6.346829 -2.507609
v -3.999997 -6.928205 -2.507609
v -3.999997 -6.928205 -2.507609
v -4.870088 -6.346829 -2.507609
v -7.305132 -9.520244 -2.507609
v -5.999995 -10.39231 -2.507609
v -4.592199 -11.08655 -2.507609
v -5.999995 -10.39231 -2.507609
v -5.999995 -10.39231 2.507609
v -4.592199 -11.08655 2.507609
v -4.592199 -11.08655 2.507609
v -5.999995 -10.39231 2.507609
v -3.999997 -6.928205 2.507609
v -3.061466 -7.391037 2.507609
v -3.061466 -7.391037 2.507609
v -3.999997 -6.928205 2.507609
v -3.999997 -6.928205 -2.507609
v -3.061466 -7.391037 -2.507609
v -3.061466 -7.391037 -2.507609
v -3.999997 -6.928205 -2.507609
v -5.999995 -10.39231 -2.507609
v -4.592199 -11.08655 -2.507609
v -4.870088 -6.346829 2.507609
v -7.305132 -9.520244 2.507609
v -7.305132 -9.520244 -2.507609
v -4.870088 -6.346829 -2.507609
v -3.061466 -7.391037 -2.507609
v -4.592199 -11.08655 -2.507609
v -4.592199 -11.08655 2.507609
v -3.061466 -7.391037 2.507609

vn -0.4999996 -0.8660257 0
vn -0.5555696 -0.83147 0
vn -0.5555696 -0.83147 0
vn -0.4999996 -0.8660257 0
vn 0 0 1
vn 0 0 1
vn 0 0 1
vn 0 0 1
vn 0.4999998 0.8660256 0
vn 0.5555699 0.8314698 0
vn 0.5555699 0.8314698 0
vn 0.4999998 0.8660256 0
vn 0 0 -1
vn 0 0 -1
vn 0 0 -1
vn 0 0 -1
vn -0.4422884 -0.8968729 0
vn -0.4999996 -0.8660257 0
vn -0.4999996 -0.8660257 0
vn -0.4422884 -0.8968729 0
vn 0 0 1
vn 0 0 1
vn 0 0 1
vn 0 0 1
vn 0.4422883 0.8968729 0
vn 0.4999998 0.8660256 0
vn 0.4999998 0.8660256 0
vn 0.4422883 0.8968729 0
vn 0 0 -1
vn 0 0 -1
vn 0 0 -1
vn 0 0 -1
vn -0.7933536 0.608761 0
vn -0.7933536 0.608761 0
vn -0.7933536 0.608761 0
vn -0.7933536 0.608761 0
vn 0.9238795 -0.3826833 0
vn 0.9238795 -0.3826833 0
vn 0.9238795 -0.3826833 0
vn 0.9238795 -0.3826833 0

vt 0 0
vt 0 0.02083333
vt 0.25 0.02083333
vt 0.25 0
vt 0.25 0
vt 0.25 0.02083333
vt 0.5 0.02083333
vt 0.5 0
vt 0.5 0
vt 0.5 0.02083333
vt 0.75 0.02083333
vt 0.75 0
vt 0.75 0
vt 0.75 0.02083333
vt 1 0.02083333
vt 1 0
vt 0 0.9791667
vt 0 1
vt 0.25 1
vt 0.25 0.9791667
vt 0.25 0.9791667
vt 0.25 1
vt 0.5 1
vt 0.5 0.9791667
vt 0.5 0.9791667
vt 0.5 1
vt 0.75 1
vt 0.75 0.9791667
vt 0.75 0.9791667
vt 0.75 1
vt 1 1
vt 1 0.9791667
vt 0.5 0.02083333
vt 0.25 0.02083333
vt 1 0.02083333
vt 0.75 0.02083333
vt 0.75 0.9791667
vt 0 0.9791667
vt 0.25 0.9791667
vt 0.5 0.9791667

g Object042
usemtl Object042
usemap Object042
f 1/1/1 3/3/3 2/2/2
f 1/1/1 4/4/4 3/3/3
f 5/5/5 7/7/7 6/6/6
f 5/5/5 8/8/8 7/7/7
f 9/9/9 11/11/11 10/10/10
f 9/9/9 12/12/12 11/11/11
f 13/13/13 15/15/15 14/14/14
f 13/13/13 16/16/16 15/15/15
f 17/17/17 19/19/19 18/18/18
f 17/17/17 20/20/20 19/19/19
f 21/21/21 23/23/23 22/22/22
f 21/21/21 24/24/24 23/23/23
f 25/25/25 27/27/27 26/26/26
f 25/25/25 28/28/28 27/27/27
f 29/29/29 31/31/31 30/30/30
f 29/29/29 32/32/32 31/31/31
f 33/33/33 35/35/35 34/34/34
f 33/33/33 36/36/36 35/35/35
f 37/37/37 39/39/39 38/38/38
f 37/37/37 40/40/40 39/39/39
