#Object046.obj

v -2.034221 -3.566406E-06 -2.507609
v -1.931561 1.566311 -2.507609
v -1.931561 1.566311 2.507609
v -2.034221 -3.566406E-06 2.507609
v -2.034221 -3.566406E-06 2.507609
v -1.931561 1.566311 2.507609
v 2.03422 1.044208 2.507609
v 1.965779 -1.309366E-06 2.507609
v 1.965779 -1.309366E-06 2.507609
v 2.03422 1.044208 2.507609
v 2.03422 1.044208 -2.507609
v 1.965779 -1.309366E-06 -2.507609
v 1.965779 -1.309366E-06 -2.507609
v 2.03422 1.044208 -2.507609
v -1.931561 1.566311 -2.507609
v -2.034221 -3.566406E-06 -2.507609
v -1.931559 -1.566314 -2.507609
v -2.034221 -3.566406E-06 -2.507609
v -2.034221 -3.566406E-06 2.507609
v -1.931559 -1.566314 2.507609
v -1.931559 -1.566314 2.507609
v -2.034221 -3.566406E-06 2.507609
v 1.965779 -1.309366E-06 2.507609
v 2.034221 -1.044208 2.507609
v 2.034221 -1.044208 2.507609
v 1.965779 -1.309366E-06 2.507609
v 1.965779 -1.309366E-06 -2.507609
v 2.034221 -1.044208 -2.507609
v 2.034221 -1.044208 -2.507609
v 1.965779 -1.309366E-06 -2.507609
v -2.034221 -3.566406E-06 -2.507609
v -1.931559 -1.566314 -2.507609
v 2.03422 1.044208 2.507609
v -1.931561 1.566311 2.507609
v -1.931561 1.566311 -2.507609
v 2.03422 1.044208 -2.507609
v 2.034221 -1.044208 -2.507609
v -1.931559 -1.566314 -2.507609
v -1.931559 -1.566314 2.507609
v 2.034221 -1.044208 2.507609

vn -1 0 0
vn -0.9978589 0.06540219 0
vn -0.9978589 0.06540219 0
vn -1 0 0
vn 0 0 1
vn 0 0 1
vn 0 0 1
vn 0 0 1
vn 1 0 0
vn 0.9978589 -0.06540249 0
vn 0.9978589 -0.06540249 0
vn 1 0 0
vn 0 0 -1
vn 0 0 -1
vn 0 0 -1
vn 0 0 -1
vn -0.9978589 -0.06540357 0
vn -1 0 0
vn -1 0 0
vn -0.9978589 -0.06540357 0
vn 0 0 1
vn 0 0 1
vn 0 0 1
vn 0 0 1
vn 0.9978589 0.06540357 0
vn 1 0 0
vn 1 0 0
vn 0.9978589 0.06540357 0
vn 0 0 -1
vn 0 0 -1
vn 0 0 -1
vn 0 0 -1
vn 0.1305256 0.9914449 0
vn 0.1305256 0.9914449 0
vn 0.1305256 0.9914449 0
vn 0.1305256 0.9914449 0
vn 0.1305264 -0.9914449 0
vn 0.1305264 -0.9914449 0
vn 0.1305264 -0.9914449 0
vn 0.1305264 -0.9914449 0

vt 0 0
vt 0 0.02083333
vt 0.25 0.02083333
vt 0.25 0
vt 0.25 0
vt 0.25 0.02083333
vt 0.5 0.02083333
vt 0.5 0
vt 0.5 0
vt 0.5 0.02083333
vt 0.75 0.02083333
vt 0.75 0
vt 0.75 0
vt 0.75 0.02083333
vt 1 0.02083333
vt 1 0
vt 0 0.9791667
vt 0 1
vt 0.25 1
vt 0.25 0.9791667
vt 0.25 0.9791667
vt 0.25 1
vt 0.5 1
vt 0.5 0.9791667
vt 0.5 0.9791667
vt 0.5 1
vt 0.75 1
vt 0.75 0.9791667
vt 0.75 0.9791667
vt 0.75 1
vt 1 1
vt 1 0.9791667
vt 0.5 0.02083333
vt 0.25 0.02083333
vt 1 0.02083333
vt 0.75 0.02083333
vt 0.75 0.9791667
vt 0 0.9791667
vt 0.25 0.9791667
vt 0.5 0.9791667

g Object046
usemtl Object046
usemap Object046
f 1/1/1 3/3/3 2/2/2
f 1/1/1 4/4/4 3/3/3
f 5/5/5 7/7/7 6/6/6
f 5/5/5 8/8/8 7/7/7
f 9/9/9 11/11/11 10/10/10
f 9/9/9 12/12/12 11/11/11
f 13/13/13 15/15/15 14/14/14
f 13/13/13 16/16/16 15/15/15
f 17/17/17 19/19/19 18/18/18
f 17/17/17 20/20/20 19/19/19
f 21/21/21 23/23/23 22/22/22
f 21/21/21 24/24/24 23/23/23
f 25/25/25 27/27/27 26/26/26
f 25/25/25 28/28/28 27/27/27
f 29/29/29 31/31/31 30/30/30
f 29/29/29 32/32/32 31/31/31
f 33/33/33 35/35/35 34/34/34
f 33/33/33 36/36/36 35/35/35
f 37/37/37 39/39/39 38/38/38
f 37/37/37 40/40/40 39/39/39
