#Object037.obj

v 8.485283 -8.485279 -2.507609
v 7.30514 -9.520238 -2.507609
v 7.30514 -9.520238 2.507609
v 8.485283 -8.485279 2.507609
v 8.485283 -8.485279 2.507609
v 7.30514 -9.520238 2.507609
v 4.870093 -6.346825 2.507609
v 5.656856 -5.656852 2.507609
v 5.656856 -5.656852 2.507609
v 4.870093 -6.346825 2.507609
v 4.870093 -6.346825 -2.507609
v 5.656856 -5.656852 -2.507609
v 5.656856 -5.656852 -2.507609
v 4.870093 -6.346825 -2.507609
v 7.30514 -9.520238 -2.507609
v 8.485283 -8.485279 -2.507609
v 9.52024 -7.305137 -2.507609
v 8.485283 -8.485279 -2.507609
v 8.485283 -8.485279 2.507609
v 9.52024 -7.305137 2.507609
v 9.52024 -7.305137 2.507609
v 8.485283 -8.485279 2.507609
v 5.656856 -5.656852 2.507609
v 6.346827 -4.870091 2.507609
v 6.346827 -4.870091 2.507609
v 5.656856 -5.656852 2.507609
v 5.656856 -5.656852 -2.507609
v 6.346827 -4.870091 -2.507609
v 6.346827 -4.870091 -2.507609
v 5.656856 -5.656852 -2.507609
v 8.485283 -8.485279 -2.507609
v 9.52024 -7.305137 -2.507609
v 4.870093 -6.346825 2.507609
v 7.30514 -9.520238 2.507609
v 7.30514 -9.520238 -2.507609
v 4.870093 -6.346825 -2.507609
v 6.346827 -4.870091 -2.507609
v 9.52024 -7.305137 -2.507609
v 9.52024 -7.305137 2.507609
v 6.346827 -4.870091 2.507609

vn 0.7071071 -0.7071064 0
vn 0.6593465 -0.7518392 0
vn 0.6593465 -0.7518392 0
vn 0.7071071 -0.7071064 0
vn 0 0 1
vn 0 0 1
vn 0 0 1
vn 0 0 1
vn -0.7071069 0.7071066 0
vn -0.6593461 0.7518396 0
vn -0.6593461 0.7518396 0
vn -0.7071069 0.7071066 0
vn 0 0 -1
vn 0 0 -1
vn 0 0 -1
vn 0 0 -1
vn 0.7518399 -0.6593457 0
vn 0.7071071 -0.7071064 0
vn 0.7071071 -0.7071064 0
vn 0.7518399 -0.6593457 0
vn 0 0 1
vn 0 0 1
vn 0 0 1
vn 0 0 1
vn -0.7518399 0.6593457 0
vn -0.7071069 0.7071066 0
vn -0.7071069 0.7071066 0
vn -0.7518399 0.6593457 0
vn 0 0 -1
vn 0 0 -1
vn 0 0 -1
vn 0 0 -1
vn -0.7933531 -0.6087618 0
vn -0.7933531 -0.6087618 0
vn -0.7933531 -0.6087618 0
vn -0.7933531 -0.6087618 0
vn 0.6087614 0.7933534 0
vn 0.6087614 0.7933534 0
vn 0.6087614 0.7933534 0
vn 0.6087614 0.7933534 0

vt 0 0
vt 0 0.02083333
vt 0.25 0.02083333
vt 0.25 0
vt 0.25 0
vt 0.25 0.02083333
vt 0.5 0.02083333
vt 0.5 0
vt 0.5 0
vt 0.5 0.02083333
vt 0.75 0.02083333
vt 0.75 0
vt 0.75 0
vt 0.75 0.02083333
vt 1 0.02083333
vt 1 0
vt 0 0.9791667
vt 0 1
vt 0.25 1
vt 0.25 0.9791667
vt 0.25 0.9791667
vt 0.25 1
vt 0.5 1
vt 0.5 0.9791667
vt 0.5 0.9791667
vt 0.5 1
vt 0.75 1
vt 0.75 0.9791667
vt 0.75 0.9791667
vt 0.75 1
vt 1 1
vt 1 0.9791667
vt 0.5 0.02083333
vt 0.25 0.02083333
vt 1 0.02083333
vt 0.75 0.02083333
vt 0.75 0.9791667
vt 0 0.9791667
vt 0.25 0.9791667
vt 0.5 0.9791667

g Object037
usemtl Object037
usemap Object037
f 1/1/1 3/3/3 2/2/2
f 1/1/1 4/4/4 3/3/3
f 5/5/5 7/7/7 6/6/6
f 5/5/5 8/8/8 7/7/7
f 9/9/9 11/11/11 10/10/10
f 9/9/9 12/12/12 11/11/11
f 13/13/13 15/15/15 14/14/14
f 13/13/13 16/16/16 15/15/15
f 17/17/17 19/19/19 18/18/18
f 17/17/17 20/20/20 19/19/19
f 21/21/21 23/23/23 22/22/22
f 21/21/21 24/24/24 23/23/23
f 25/25/25 27/27/27 26/26/26
f 25/25/25 28/28/28 27/27/27
f 29/29/29 31/31/31 30/30/30
f 29/29/29 32/32/32 31/31/31
f 33/33/33 35/35/35 34/34/34
f 33/33/33 36/36/36 35/35/35
f 37/37/37 39/39/39 38/38/38
f 37/37/37 40/40/40 39/39/39
