#Object050.obj

v -6.000008 10.3923 -2.507609
v -4.59221 11.08655 -2.507609
v -4.59221 11.08655 2.507609
v -6.000008 10.3923 2.507609
v -6.000008 10.3923 2.507609
v -4.59221 11.08655 2.507609
v -3.061473 7.391035 2.507609
v -4.000005 6.928201 2.507609
v -4.000005 6.928201 2.507609
v -3.061473 7.391035 2.507609
v -3.061473 7.391035 -2.507609
v -4.000005 6.928201 -2.507609
v -4.000005 6.928201 -2.507609
v -3.061473 7.391035 -2.507609
v -4.59221 11.08655 -2.507609
v -6.000008 10.3923 -2.507609
v -7.305141 9.520238 -2.507609
v -6.000008 10.3923 -2.507609
v -6.000008 10.3923 2.507609
v -7.305141 9.520238 2.507609
v -7.305141 9.520238 2.507609
v -6.000008 10.3923 2.507609
v -4.000005 6.928201 2.507609
v -4.870094 6.346825 2.507609
v -4.870094 6.346825 2.507609
v -4.000005 6.928201 2.507609
v -4.000005 6.928201 -2.507609
v -4.870094 6.346825 -2.507609
v -4.870094 6.346825 -2.507609
v -4.000005 6.928201 -2.507609
v -6.000008 10.3923 -2.507609
v -7.305141 9.520238 -2.507609
v -3.061473 7.391035 2.507609
v -4.59221 11.08655 2.507609
v -4.59221 11.08655 -2.507609
v -3.061473 7.391035 -2.507609
v -4.870094 6.346825 -2.507609
v -7.305141 9.520238 -2.507609
v -7.305141 9.520238 2.507609
v -4.870094 6.346825 2.507609

vn -0.5000005 0.8660251 0
vn -0.4422893 0.8968725 0
vn -0.4422893 0.8968725 0
vn -0.5000005 0.8660251 0
vn 0 0 1
vn 0 0 1
vn 0 0 1
vn 0 0 1
vn 0.5000005 -0.8660251 0
vn 0.4422896 -0.8968724 0
vn 0.4422896 -0.8968724 0
vn 0.5000005 -0.8660251 0
vn 0 0 -1
vn 0 0 -1
vn 0 0 -1
vn 0 0 -1
vn -0.5555708 0.8314693 0
vn -0.5000005 0.8660251 0
vn -0.5000005 0.8660251 0
vn -0.5555708 0.8314693 0
vn 0 0 1
vn 0 0 1
vn 0 0 1
vn 0 0 1
vn 0.5555707 -0.8314694 0
vn 0.5000005 -0.8660251 0
vn 0.5000005 -0.8660251 0
vn 0.5555707 -0.8314694 0
vn 0 0 -1
vn 0 0 -1
vn 0 0 -1
vn 0 0 -1
vn 0.9238792 0.3826841 0
vn 0.9238792 0.3826841 0
vn 0.9238792 0.3826841 0
vn 0.9238792 0.3826841 0
vn -0.7933531 -0.6087618 0
vn -0.7933531 -0.6087618 0
vn -0.7933531 -0.6087618 0
vn -0.7933531 -0.6087618 0

vt 0 0
vt 0 0.02083333
vt 0.25 0.02083333
vt 0.25 0
vt 0.25 0
vt 0.25 0.02083333
vt 0.5 0.02083333
vt 0.5 0
vt 0.5 0
vt 0.5 0.02083333
vt 0.75 0.02083333
vt 0.75 0
vt 0.75 0
vt 0.75 0.02083333
vt 1 0.02083333
vt 1 0
vt 0 0.9791667
vt 0 1
vt 0.25 1
vt 0.25 0.9791667
vt 0.25 0.9791667
vt 0.25 1
vt 0.5 1
vt 0.5 0.9791667
vt 0.5 0.9791667
vt 0.5 1
vt 0.75 1
vt 0.75 0.9791667
vt 0.75 0.9791667
vt 0.75 1
vt 1 1
vt 1 0.9791667
vt 0.5 0.02083333
vt 0.25 0.02083333
vt 1 0.02083333
vt 0.75 0.02083333
vt 0.75 0.9791667
vt 0 0.9791667
vt 0.25 0.9791667
vt 0.5 0.9791667

g Object050
usemtl Object050
usemap Object050
f 1/1/1 3/3/3 2/2/2
f 1/1/1 4/4/4 3/3/3
f 5/5/5 7/7/7 6/6/6
f 5/5/5 8/8/8 7/7/7
f 9/9/9 11/11/11 10/10/10
f 9/9/9 12/12/12 11/11/11
f 13/13/13 15/15/15 14/14/14
f 13/13/13 16/16/16 15/15/15
f 17/17/17 19/19/19 18/18/18
f 17/17/17 20/20/20 19/19/19
f 21/21/21 23/23/23 22/22/22
f 21/21/21 24/24/24 23/23/23
f 25/25/25 27/27/27 26/26/26
f 25/25/25 28/28/28 27/27/27
f 29/29/29 31/31/31 30/30/30
f 29/29/29 32/32/32 31/31/31
f 33/33/33 35/35/35 34/34/34
f 33/33/33 36/36/36 35/35/35
f 37/37/37 39/39/39 38/38/38
f 37/37/37 40/40/40 39/39/39
