#Object041.obj

v -0.2876203 -1.946923 -2.507609
v -1.773993 -1.442369 -2.507609
v -1.773993 -1.442369 2.507609
v -0.2876203 -1.946923 2.507609
v -0.2876203 -1.946923 2.507609
v -1.773993 -1.442369 2.507609
v -0.2432609 2.25315 2.507609
v 0.7476542 1.91678 2.507609
v 0.7476542 1.91678 2.507609
v -0.2432609 2.25315 2.507609
v -0.2432609 2.25315 -2.507609
v 0.7476542 1.91678 -2.507609
v 0.7476542 1.91678 -2.507609
v -0.2432609 2.25315 -2.507609
v -1.773993 -1.442369 -2.507609
v -0.2876203 -1.946923 -2.507609
v 1.25189 -2.253151 -2.507609
v -0.2876203 -1.946923 -2.507609
v -0.2876203 -1.946923 2.507609
v 1.25189 -2.253151 2.507609
v 1.25189 -2.253151 2.507609
v -0.2876203 -1.946923 2.507609
v 0.7476542 1.91678 2.507609
v 1.773995 1.712629 2.507609
v 1.773995 1.712629 2.507609
v 0.7476542 1.91678 2.507609
v 0.7476542 1.91678 -2.507609
v 1.773995 1.712629 -2.507609
v 1.773995 1.712629 -2.507609
v 0.7476542 1.91678 -2.507609
v -0.2876203 -1.946923 -2.507609
v 1.25189 -2.253151 -2.507609
v -0.2432609 2.25315 2.507609
v -1.773993 -1.442369 2.507609
v -1.773993 -1.442369 -2.507609
v -0.2432609 2.25315 -2.507609
v 1.773995 1.712629 -2.507609
v 1.25189 -2.253151 -2.507609
v 1.25189 -2.253151 2.507609
v 1.773995 1.712629 2.507609

vn -0.2588186 -0.9659259 0
vn -0.3214384 -0.9469305 0
vn -0.3214384 -0.9469305 0
vn -0.2588186 -0.9659259 0
vn 0 0 1
vn 0 0 1
vn 0 0 1
vn 0 0 1
vn 0.2588187 0.9659259 0
vn 0.3214388 0.9469303 0
vn 0.3214388 0.9469303 0
vn 0.2588187 0.9659259 0
vn 0 0 -1
vn 0 0 -1
vn 0 0 -1
vn 0 0 -1
vn -0.1950903 -0.9807853 0
vn -0.2588186 -0.9659259 0
vn -0.2588186 -0.9659259 0
vn -0.1950903 -0.9807853 0
vn 0 0 1
vn 0 0 1
vn 0 0 1
vn 0 0 1
vn 0.1950902 0.9807854 0
vn 0.2588187 0.9659259 0
vn 0.2588187 0.9659259 0
vn 0.1950902 0.9807854 0
vn 0 0 -1
vn 0 0 -1
vn 0 0 -1
vn 0 0 -1
vn -0.9238797 0.3826829 0
vn -0.9238797 0.3826829 0
vn -0.9238797 0.3826829 0
vn -0.9238797 0.3826829 0
vn 0.9914449 -0.1305261 0
vn 0.9914449 -0.1305261 0
vn 0.9914449 -0.1305261 0
vn 0.9914449 -0.1305261 0

vt 0 0
vt 0 0.02083333
vt 0.25 0.02083333
vt 0.25 0
vt 0.25 0
vt 0.25 0.02083333
vt 0.5 0.02083333
vt 0.5 0
vt 0.5 0
vt 0.5 0.02083333
vt 0.75 0.02083333
vt 0.75 0
vt 0.75 0
vt 0.75 0.02083333
vt 1 0.02083333
vt 1 0
vt 0 0.9791667
vt 0 1
vt 0.25 1
vt 0.25 0.9791667
vt 0.25 0.9791667
vt 0.25 1
vt 0.5 1
vt 0.5 0.9791667
vt 0.5 0.9791667
vt 0.5 1
vt 0.75 1
vt 0.75 0.9791667
vt 0.75 0.9791667
vt 0.75 1
vt 1 1
vt 1 0.9791667
vt 0.5 0.02083333
vt 0.25 0.02083333
vt 1 0.02083333
vt 0.75 0.02083333
vt 0.75 0.9791667
vt 0 0.9791667
vt 0.25 0.9791667
vt 0.5 0.9791667

g Object041
usemtl Object041
usemap Object041
f 1/1/1 3/3/3 2/2/2
f 1/1/1 4/4/4 3/3/3
f 5/5/5 7/7/7 6/6/6
f 5/5/5 8/8/8 7/7/7
f 9/9/9 11/11/11 10/10/10
f 9/9/9 12/12/12 11/11/11
f 13/13/13 15/15/15 14/14/14
f 13/13/13 16/16/16 15/15/15
f 17/17/17 19/19/19 18/18/18
f 17/17/17 20/20/20 19/19/19
f 21/21/21 23/23/23 22/22/22
f 21/21/21 24/24/24 23/23/23
f 25/25/25 27/27/27 26/26/26
f 25/25/25 28/28/28 27/27/27
f 29/29/29 31/31/31 30/30/30
f 29/29/29 32/32/32 31/31/31
f 33/33/33 35/35/35 34/34/34
f 33/33/33 36/36/36 35/35/35
f 37/37/37 39/39/39 38/38/38
f 37/37/37 40/40/40 39/39/39
